<?xml version="1.0" standalone="no"?>
<!DOCTYPE svg PUBLIC "-//W3C//DTD SVG 20010904//EN"
 "http://www.w3.org/TR/2001/REC-SVG-20010904/DTD/svg10.dtd">
<svg version="1.0" xmlns="http://www.w3.org/2000/svg"
 width="700.000000pt" height="700.000000pt" viewBox="0 0 700.000000 700.000000"
 preserveAspectRatio="xMidYMid meet">
<metadata>
Created by potrace 1.11, written by Peter Selinger 2001-2013
</metadata>
<g transform="translate(0.000000,700.000000) scale(0.100000,-0.100000)"
fill="#000000" stroke="none">
<path d="M1700 6982 c-192 -14 -366 -93 -494 -225 -141 -145 -210 -317 -209
-522 0 -134 18 -207 80 -333 37 -75 61 -109 127 -175 99 -100 110 -108 211
-157 162 -78 111 -74 1123 -76 l903 -1 37 47 c20 27 45 59 54 71 27 38 685
920 719 964 81 105 299 401 299 405 0 5 -2784 7 -2850 2z"/>
<path d="M5440 6978 c-156 -16 -311 -86 -425 -190 -45 -41 -238 -288 -440
-563 -37 -51 -394 -530 -402 -540 -5 -5 -101 -134 -213 -285 -235 -315 -562
-753 -590 -790 -28 -37 -489 -655 -540 -724 -24 -33 -49 -67 -56 -75 -7 -9
-81 -108 -165 -221 -84 -113 -299 -401 -478 -640 -179 -239 -336 -450 -348
-468 -13 -18 -27 -38 -33 -45 -10 -12 -210 -279 -425 -568 -294 -396 -495
-665 -505 -677 -22 -25 -90 -167 -105 -217 -23 -81 -28 -123 -27 -227 3 -374
293 -689 667 -726 93 -9 4267 -7 4325 2 24 4 47 9 51 11 3 2 21 7 39 10 44 8
167 65 224 104 235 162 358 456 310 736 -51 296 -263 523 -559 601 -66 17
-147 18 -1443 20 -755 0 -1374 3 -1377 5 -2 3 95 137 216 299 121 162 306 411
412 553 106 142 233 313 283 380 51 67 221 295 378 507 158 212 302 405 321
430 32 41 187 249 710 950 104 140 277 372 383 515 107 143 203 271 213 285
10 14 56 75 102 135 208 275 242 330 283 457 22 69 27 102 28 198 1 125 -3
152 -33 250 -59 185 -211 357 -392 442 -49 23 -108 43 -159 55 -8 2 -42 6 -75
9 -33 3 -64 7 -70 8 -5 1 -44 -2 -85 -6z"/>
</g>
</svg>
